PathFileType	4	(X/Y/Z)	Kaydara	
DataRate	CameraRate	NumFrames	NumMarkers	Units	OrigDataRate	OrigDataStartFrame	OrigNumFrames	
240.00	240.00	4	72	mm	240.00	225	359	
Frame#	Time	Hips			RightUpLeg			RightLeg			RightFoot			RightFoot_End			LeftUpLeg			LeftLeg			LeftFoot			LeftFoot_End			Spine			Spine1			Spine2			Spine3			Neck			Head			Head_End			RightShoulder			RightArm			RightForeArm			RightHand			RightHandThumb1			RightHandThumb2			RightHandThumb3			RightHandThumb3_End			RightInHandIndex			RightHandIndex1			RightHandIndex2			RightHandIndex3			RightHandIndex3_End			RightInHandMiddle			RightHandMiddle1			RightHandMiddle2			RightHandMiddle3			RightHandMiddle3_End			RightInHandRing			RightHandRing1			RightHandRing2			RightHandRing3			RightHandRing3_End			RightInHandPinky			RightHandPinky1			RightHandPinky2			RightHandPinky3			RightHandPinky3_End			LeftShoulder			LeftArm			LeftForeArm			LeftHand			LeftHandThumb1			LeftHandThumb2			LeftHandThumb3			LeftHandThumb3_End			LeftInHandIndex			LeftHandIndex1			LeftHandIndex2			LeftHandIndex3			LeftHandIndex3_End			LeftInHandMiddle			LeftHandMiddle1			LeftHandMiddle2			LeftHandMiddle3			LeftHandMiddle3_End			LeftInHandRing			LeftHandRing1			LeftHandRing2			LeftHandRing3			LeftHandRing3_End			LeftInHandPinky			LeftHandPinky1			LeftHandPinky2			LeftHandPinky3			LeftHandPinky3_End			
		X1	Y1	Z1	X2	Y2	Z2	X3	Y3	Z3	X4	Y4	Z4	X5	Y5	Z5	X6	Y6	Z6	X7	Y7	Z7	X8	Y8	Z8	X9	Y9	Z9	X10	Y10	Z10	X11	Y11	Z11	X12	Y12	Z12	X13	Y13	Z13	X14	Y14	Z14	X15	Y15	Z15	X16	Y16	Z16	X17	Y17	Z17	X18	Y18	Z18	X19	Y19	Z19	X20	Y20	Z20	X21	Y21	Z21	X22	Y22	Z22	X23	Y23	Z23	X24	Y24	Z24	X25	Y25	Z25	X26	Y26	Z26	X27	Y27	Z27	X28	Y28	Z28	X29	Y29	Z29	X30	Y30	Z30	X31	Y31	Z31	X32	Y32	Z32	X33	Y33	Z33	X34	Y34	Z34	X35	Y35	Z35	X36	Y36	Z36	X37	Y37	Z37	X38	Y38	Z38	X39	Y39	Z39	X40	Y40	Z40	X41	Y41	Z41	X42	Y42	Z42	X43	Y43	Z43	X44	Y44	Z44	X45	Y45	Z45	X46	Y46	Z46	X47	Y47	Z47	X48	Y48	Z48	X49	Y49	Z49	X50	Y50	Z50	X51	Y51	Z51	X52	Y52	Z52	X53	Y53	Z53	X54	Y54	Z54	X55	Y55	Z55	X56	Y56	Z56	X57	Y57	Z57	X58	Y58	Z58	X59	Y59	Z59	X60	Y60	Z60	X61	Y61	Z61	X62	Y62	Z62	X63	Y63	Z63	X64	Y64	Z64	X65	Y65	Z65	X66	Y66	Z66	X67	Y67	Z67	X68	Y68	Z68	X69	Y69	Z69	X70	Y70	Z70	X71	Y71	Z71	X72	Y72	Z72	

225	0.933	7198.941	914.58397	126.699	7248.824164642172	891.4549092968383	51.936144207606866	7152.387651779865	496.3467997984366	-48.332109786127816	7141.7761872200135	105.08768425370302	-125.34311183231847	6990.527168632261	28.30572536887539	-37.21556238348877	7162.73210530424	911.3844279015982	213.17482476521565	7071.124273248448	509.0487405120353	284.78261569273155	6993.006701607752	84.14295350945704	366.9177487216783	6872.009078478546	1.3668310200563503	244.2590215838902	7135.361462092681	1033.0406803862118	77.80614838034813	7074.916577128778	1089.289108685802	26.6454649162377	7009.0399391962255	1140.955883908763	-30.15729961030013	6942.233036131338	1179.4245173847187	-89.29534447915549	6869.66909797091	1220.920254916681	-150.8477363682103	6802.043574715271	1259.2728650469714	-204.38196365296014	6665.2673597755975	1339.1002512227824	-219.49083210516588	6909.9655989684	1200.598117526844	-153.66218981296436	6944.8662587315175	1152.9079301491297	-248.55496992974352	6969.495772288583	941.8496405828209	-189.90243550676502	6932.5304584097175	822.4200016709732	-279.888032605599	6934.785665246258	836.3116246929437	-289.4316389933758	6926.665571474583	840.2402782710866	-299.35421944515645	6920.9792728914545	839.4820821722819	-306.49587566207776	6916.211934445645	835.860887327299	-312.6476645377434	6935.973292737638	825.0808122380088	-291.35606477614385	6936.381902677047	816.1002513102343	-308.79432680574683	6930.825216723633	809.7433081764377	-319.76143368255936	6924.1583949953765	809.2753941814003	-324.3966684685267	6916.473517840221	811.2383005909758	-326.76074219825995	6935.595858487729	815.8848684129825	-291.3234150788344	6935.791916187295	802.1514396921043	-308.31484408300287	6929.670045061188	794.0303593431119	-320.2198089411115	6921.5987247561825	792.897497369559	-325.782131772161	6913.176441139033	794.7689825127345	-328.3543101769315	6935.377960561825	809.5935651759626	-290.8721959466302	6935.537676185427	791.7554973885372	-305.7575059374641	6930.141152140063	783.4884721650403	-316.04324447226384	6922.323493265933	781.7644974496997	-321.3603888483266	6914.389146837671	783.2250385619119	-323.7560615203656	6934.648740235146	802.7880972998664	-289.7142341236681	6934.544399734506	782.1496999674795	-302.71522854367595	6930.12726424122	773.7532886575594	-310.7451689212958	6924.378690043534	771.6364698785129	-314.5236249129313	6917.323479854229	772.4357105990505	-316.5883135144884	6877.6677172453265	1214.0242935579313	-106.07087648111033	6840.124422757253	1197.7975440368073	-3.1088445831190974	6920.1240099189135	1014.3208277661425	-84.24192320866051	6940.0173094060665	867.3639271313872	-210.40627379627708	6949.852446750893	875.5983491127772	-220.6462257658097	6966.9557518872325	865.0179596903268	-229.78224591171747	6978.529399003042	854.5434730052416	-236.57369469627554	6987.889472130029	843.1539907162431	-242.6025369782986	6948.859943968292	866.18205728004	-223.57842499808635	6964.0971615363005	848.6810978566907	-243.33294782708106	6978.367554082995	831.3557621355142	-254.6529344874143	6988.3443999553865	821.6481162554197	-258.4758213945965	6997.347553938279	814.330468199651	-259.4715784720407	6947.587040165909	858.0979415192854	-223.94263366449974	6961.759405023844	836.6567983734842	-243.40829352819966	6977.118440275697	816.7350692284888	-255.74159881403708	6989.053023255215	804.5354427789305	-260.3446179072762	6998.854463310887	796.2915167610199	-261.42970561348807	6946.262500613695	852.8615771981064	-223.72722483718454	6957.707462814133	829.1837802162071	-241.07716682665964	6970.855018826356	810.8145971726068	-251.77642474309937	6982.23971841002	798.5132047120192	-256.18957802782666	6991.395287782298	790.5088426385548	-257.1971168671917	6944.58123538383	847.1091462497462	-222.65942840955006	6953.924761040723	821.935531020314	-238.02608142006198	6964.02964624474	805.7607894390928	-246.43897571041637	6972.12898245291	796.0792483546438	-249.58312607068768	6980.121513935968	788.5807321692198	-250.43258010424228
226	0.938	7198.941	914.58397	126.699	7248.752978185503	891.3803319763124	51.91985517705178	7152.301321333678	496.28969608262616	-48.40130619553184	7141.787874996091	105.03371237771962	-125.4313871840418	6990.54229193592	28.249484211012536	-37.299908486937305	7162.794744623809	911.4574246468902	213.1971266696007	7071.189524894325	509.1152153023632	284.77098721508077	6993.011659038404	84.20102004420653	366.79517364082096	6872.021514290057	1.4183254631571751	244.13355403271606	7135.402783677533	1033.0513109448623	77.78030906880569	7074.971220317718	1089.2951984738006	26.599016409710995	7009.105875517396	1140.9585026881598	-30.220107140054704	6942.305023390215	1179.4300142535778	-89.3635602011984	6869.747613474862	1220.9281267864885	-150.92250446151613	6802.1302743200695	1259.2857455863139	-204.4639385216129	6665.38923306427	1339.152167145839	-219.6589052422657	6909.986537627748	1200.5107484277244	-153.72747645367647	6944.559837839481	1152.3977998226828	-248.41158831950972	6968.585542607693	941.8833783249123	-188.6861584305064	6931.069434880688	822.4601759540164	-277.1219142257386	6933.266899703877	836.338028216036	-286.4626794801158	6925.233952311846	840.228381681594	-296.1609613083773	6919.60875283539	839.4423942736777	-303.14499254146386	6914.892701113461	835.7970736633347	-309.1641586099614	6934.434939861567	825.1038016617205	-288.36137461635724	6934.795153980341	816.0847655561421	-305.4537699023108	6929.288975384375	809.6911068260911	-316.19096558607686	6922.7031850551375	809.1988074461643	-320.7171782358507	6915.118855214666	811.1404782944687	-323.01389015799714	6934.064307646435	815.9056807443288	-288.33740396020335	6934.2168167297095	802.1335497354033	-304.99617638934865	6928.151218816135	793.9722304825289	-316.65254289801976	6920.178216548018	792.8098645297999	-322.0844290139623	6911.866220526866	794.6580733020697	-324.583433470416	6933.851588564142	809.6139071804845	-287.90095497323165	6933.974250227735	791.740997656371	-302.5004110405438	6928.6280375723845	783.4387813446281	-312.5723275942609	6920.905885312422	781.6862846619247	-317.7651728412749	6913.075555083306	783.1249102658336	-320.092762697898	6933.136527945667	802.8083346899962	-286.7715142699971	6933.004023888054	782.1381922616016	-299.5271672710197	6928.629314953843	773.7135673559828	-307.39159252328386	6922.951438418715	771.5759281379023	-311.0821442052998	6915.9889651820895	772.3557458398514	-313.08811091732895	6877.8019091166825	1214.1281460326002	-106.1522266337824	6840.446558314314	1198.4529533908885	-3.162861406527595	6919.863872749074	1014.6588719715238	-83.13277882013116	6938.843140704814	867.2383306267081	-208.2044161085942	6948.455503687514	875.4488526271165	-218.3630024919112	6965.307063968417	864.8638881689737	-227.50240925990897	6976.711911785779	854.3848766042257	-234.28746491228563	6985.9368383814935	842.9904767789027	-240.30349078251803	6947.46715917024	866.0226700226024	-221.2430461332785	6962.389062623789	848.4776573132119	-240.8187342656934	6976.4334044552115	831.1371480808299	-252.08541037316982	6986.28523875412	821.4330766000444	-255.93520931748787	6995.195392167572	814.1271612172557	-256.9937505713756	6946.22263738158	857.9371821209875	-221.59305782914677	6960.102808064121	836.4523241130643	-240.8765882595225	6975.219936468187	816.5140188237355	-253.15051680469986	6987.005981557637	804.3186957821036	-257.78542655231894	6996.706772482138	796.0876030569635	-258.938930706488	6944.926243136809	852.7007978107265	-221.37136726536912	6956.133910998579	828.9832950083738	-238.55024698430472	6969.0759447096825	810.599715736087	-249.1968170080929	6980.320195412899	798.3025016655903	-253.64023501230864	6989.382469259665	790.3102191351949	-254.71186741569284	6943.2861808433545	846.9509965860937	-220.30793332946234	6952.437519235887	821.7419840925742	-235.517585501082	6962.387171236085	805.5559694807267	-243.88758276495494	6970.388582223688	795.8775994443836	-247.05346656603257	6978.301069665375	788.3898547609024	-247.95950039007954
227	0.942	7198.941	914.58397	126.699	7248.681570200476	891.3055180651746	51.90352004345363	7152.214751739491	496.2323887556378	-48.47065484568975	7141.79972417214	104.97954853648216	-125.51988869240971	6990.557571632391	28.193020214864536	-37.38451658939135	7162.857594137412	911.5306652170588	213.21950251004418	7071.255071983167	509.18190554160947	284.75938059164343	6993.016836821373	84.25925652093244	366.6722746833913	6872.034191304961	1.4699573841144549	244.00776417467063	7135.444165787007	1033.0619204023374	77.75434851087726	7075.025873318301	1089.301200133031	26.55243331909222	7009.171744056653	1140.9609562114586	-30.283028145807474	6942.37683010617	1179.4352712603525	-89.43180578558503	6869.825836966878	1220.9356828704374	-150.99721752357522	6802.2165962082445	1259.2982550087597	-204.5457858409716	6665.510883348961	1339.2039253312275	-219.82702953095125	6910.007034022015	1200.4228214700922	-153.79274837964084	6944.251830428022	1151.886133548762	-248.2679194203982	6967.6727250567665	941.9170075030459	-187.4667166343379	6929.604220146018	822.4990721953952	-274.3463385880683	6931.743754936544	836.3627651359224	-283.48375809827934	6923.798154889249	840.2143266248354	-292.9569461926437	6918.234183718021	839.4002176737994	-299.7827404620707	6913.569517227887	835.7305065188077	-305.66872369838933	6932.892104787626	825.1251408336137	-285.3564670588791	6933.203642803049	816.0670720686359	-302.10161936112166	6927.748028497575	809.6362675464684	-312.6079480903727	6921.243473784787	809.119325380519	-317.02469973984284	6913.759974165564	811.0395543966575	-319.2537913832428	6932.528267092064	815.9248936739872	-285.34106496749143	6932.636950042798	802.1135441432433	-301.66577872124776	6926.627687699242	793.9115250223509	-313.0724938439727	6918.753249960866	792.7193486076583	-318.3734089201628	6910.551851141236	794.5440572860422	-320.79895425572977	6932.320726011494	809.632700333451	-284.91934251904263	6932.406076419648	791.72453147096	-299.23164827303196	6927.110230209807	783.3867317542197	-309.08881689821794	6919.483822700358	781.6054225017228	-314.15684330742226	6911.757799955297	783.0219246224548	-316.41608017238855	6931.619853400131	802.8270945026711	-283.81841786249527	6931.45895814278	782.124869053456	-296.32753456769524	6927.126722094972	773.6717329784228	-304.02569622528495	6921.519718004077	771.5130693744051	-307.62796113151353	6914.650240375076	772.2732844413005	-309.57496467159945	6877.9360415516885	1214.231982556721	-106.23354203947183	6840.769422454996	1199.1096852252806	-3.2166665038890754	6919.603981742048	1014.9973134522894	-82.01952636451327	6937.666570273782	867.1113061206981	-205.99519886850538	6947.055440804416	875.2979694589499	-216.07233874736846	6963.65444568155	864.7086173362892	-225.21515543897942	6974.889950347076	854.2251853475984	-231.99377234161247	6983.979294657906	842.825932798392	-237.9968908640044	6946.071266320617	865.861782997262	-218.89996329996856	6960.676836347368	848.2726128509815	-238.29620987176003	6974.494398029555	830.9169835130472	-249.50933673297274	6984.220818541457	821.2166180171847	-253.38609757901384	6993.037673060305	813.9226105834434	-254.50759801507024	6944.855217131298	857.7748617667904	-219.23563966761392	6958.442248435381	836.2461541786631	-238.33637385764555	6973.316689267949	816.2913234424935	-250.55064914189373	6984.953718521927	804.1004589257018	-255.21750199849785	6994.5535374473575	795.8823895093648	-256.43961034282006	6943.587058339894	852.5384154268584	-219.00758271436808	6954.556663423262	828.781045277096	-236.014722094303	6967.292511410085	810.383106446922	-246.60834787351817	6978.395861275819	798.0902163969686	-251.08207305016475	6987.364540312964	790.1101901809931	-252.2179716836943	6941.98833134058	846.791210062289	-217.94845010843375	6950.946859385468	821.5466263131037	-233.00043360075338	6960.740776900568	805.3493570223416	-241.3273076100847	6968.643947502564	795.6742589302294	-244.5149456827445	6976.476134127464	788.1974392734752	-245.47770641875684
228	0.946	7198.941	914.58397	126.699	7248.609943760048	891.2304707544282	51.887139550226266	7152.127946725882	496.1748801806207	-48.54015241387925	7141.811734618775	104.92519495139753	-125.60861218813439	6990.573007410277	28.13633562702033	-37.46938281326352	7162.920651186683	911.6041465302862	213.24195131977677	7071.320912039485	509.2488084073317	284.74779657190413	6993.02223532229	84.31766044869165	366.54905740941075	6872.047109561463	1.521724547205204	243.88165771875168	7135.485606433906	1033.0725081178189	77.7282676587917	7075.08053328159	1089.3071130067754	26.505717594638345	7009.237541154883	1140.9632437314824	-30.346059810895923	6942.448452040072	1179.4402872912478	-89.50007796702727	6869.903763607429	1220.9429217107177	-151.07187178086411	6802.302534919117	1259.3103914310161	-204.62750132699958	6665.632303774814	1339.255522376397	-219.9951969132719	6910.027085851681	1200.3343395513118	-153.85800227804208	6943.942248103872	1151.372954042645	-248.12396929329105	6966.757362207907	941.9505288671264	-186.24416407644557	6928.134882153768	822.5366920708383	-271.56142418519767	6930.216301715548	836.3858380912709	-280.4950012458274	6922.358246937554	840.1981171916069	-289.74230967157416	6916.855631095782	839.3555574817451	-296.4092614904445	6912.242446484041	835.6611918577486	-302.16150737055796	6931.3448589744075	825.1448324759124	-282.34146964740916	6931.607443019334	816.0471753254576	-298.73801671889044	6926.202448241157	809.5787961973651	-309.01253219635475	6919.779330312835	809.0369546495617	-313.31938854543114	6912.396939951831	810.935536192815	-315.48060432627176	6930.987807883846	815.9425098898442	-282.33452542449595	6931.052389326809	802.0914272971748	-298.3237919319918	6925.099522995073	793.8482488422001	-309.47981288483857	6917.323892569205	792.6259564495108	-314.64922806708023	6909.233396307477	794.4269419982189	-317.00103225103123	6930.785443653717	809.6499472524605	-281.9274854016559	6930.833227261859	791.7061029031398	-295.95135615647007	6925.587800813368	783.3323287574735	-305.59285974407055	6918.057372574968	781.5219172584134	-310.53555283145323	6910.4359445859955	782.9160885639775	-312.72616945803134	6930.098786650804	802.8443792333333	-280.85507068081324	6929.909273842982	782.1097340925046	-293.1164663336993	6925.619555498858	773.6277902831298	-300.64762280110756	6920.083595939888	771.4478990086551	-304.16122217782345	6913.307368986134	772.1883323861571	-306.04902380192465	6878.070107465109	1214.3357974420749	-106.31481874033268	6841.09300044404	1199.767709073102	-3.2702576965399572	6919.344352111459	1015.33613798147	-80.90221192144354	6936.487653380825	866.9828621109432	-203.77871696767488	6945.652322592891	875.1457104540614	-213.77433221012132	6961.997971643061	864.5521592016021	-222.92058182169367	6973.063596096624	854.0644120121776	-229.6927146086977	6982.016927811596	842.6603721547384	-235.68283545412243	6944.6723298159595	865.6994072607914	-216.5492766303281	6958.960560170091	848.0659786339694	-235.7654821929314	6972.550621450447	830.6952839626897	-246.92482341953507	6982.151230914538	820.9987562439179	-250.82859494406827	6990.874491803474	813.7168317725111	-252.0132269672244	6943.4848426596	857.6109912510826	-216.87048018080142	6956.777801503708	836.0383022536389	-235.78775902701616	6971.408783865495	816.066998213609	-247.94210713235205	6982.896325220632	803.8807475658408	-252.640954281878	6992.394853161725	795.67589117615	-253.9318517331017	6942.245008320184	852.3744405846448	-216.635972643111	6952.9757920528455	828.5770439517992	-233.47070101512526	6965.504799237561	810.1647834430797	-244.01112854242749	6976.466801866871	797.8763632360715	-248.5152021593643	6985.341590406155	789.9087698125695	-249.71553705175825	6940.687747271723	846.629796764798	-215.5810802545346	6949.452849891635	821.3494697124363	-230.4747341590715	6959.090537940367	805.1409649716253	-238.7582606499609	6966.895156860723	795.4692398160519	-241.9676730025171	6974.646788972255	788.003498425772	-242.98730545979186
